<?xml version="1.0" encoding="utf-8"?>
<!-- Generator: Adobe Illustrator 26.3.1, SVG Export Plug-In . SVG Version: 6.00 Build 0)  -->
<svg version="1.1" id="Layer_1" xmlns="http://www.w3.org/2000/svg" xmlns:xlink="http://www.w3.org/1999/xlink" x="0px" y="0px"
	 viewBox="0 0 353 326" style="enable-background:new 0 0 353 326;" xml:space="preserve">
<style type="text/css">
	.st0{fill:#E88D60;stroke:#000000;stroke-miterlimit:10;}
	.st1{opacity:0.45;fill:#FFFFFF;enable-background:new    ;}
	.st2{font-family:'BaiJamjuree-Medium';}
	.st3{font-size:155.9026px;}
	.st4{letter-spacing:-15.1;}
	.st5{font-size:226.2052px;}
	.st6{letter-spacing:-24.4;}
	.st7{fill:#94A1ED;stroke:#000000;stroke-miterlimit:10;}
	.st8{fill:#E8C67C;stroke:#000000;stroke-miterlimit:10;}
	.st9{fill:#9BC4A4;stroke:#000000;stroke-miterlimit:10;}
	.st10{fill:#DDB3D0;}
	.st11{fill:#8CD5EA;stroke:#000000;stroke-miterlimit:10;}
</style>
<text transform="matrix(1 0 0 1 -1998.9585 -57.2024)" class="st2" style="font-size:46.1672px;">353</text>
<text transform="matrix(1 0 0 1 -1915.6584 -57.2024)" class="st2" style="font-size:46.1672px; letter-spacing:-11;"> </text>
<text transform="matrix(1 0 0 1 -1914.6584 -57.2024)" class="st2" style="font-size:46.1672px;">×</text>
<text transform="matrix(1 0 0 1 -1890.3585 -57.2024)" class="st2" style="font-size:46.1672px; letter-spacing:-11;"> </text>
<text transform="matrix(1 0 0 1 -1889.3585 -57.2024)" class="st2" style="font-size:46.1672px;">326</text>
<rect x="-9.2" y="-6" class="st0" width="371.3" height="342.9"/>
<text transform="matrix(0.7293 0 0 1 2.42 153.2739)" class="st1 st2 st3 st4">SESIÓN</text>
<text transform="matrix(0.8599 0 0 1 0.6232 307.0144)" class="st1 st2 st5 st6">SEIS</text>
<g>
	<rect x="-410.1" y="-6" class="st7" width="371.3" height="342.9"/>
	<text transform="matrix(0.7293 0 0 1 -392.533 165.4146)" class="st1 st2 st3 st4">SESIÓN</text>
	<text transform="matrix(0.7293 0 0 1 -394.33 303.5083)" class="st1 st2" style="font-size:188.2363px; letter-spacing:-20.6;">CINCO</text>
</g>
<rect x="-818.4" y="-8.4" class="st8" width="371.3" height="342.9"/>
<text transform="matrix(0.7293 0 0 1 -804.7877 165.4646)" class="st1 st2 st3 st4">SESIÓN</text>
<text transform="matrix(0.7293 0 0 1 -806.5845 282.0075)" class="st1 st2 st4" style="font-size:147.9184px;">CUATRO</text>
<rect x="-1237.9" y="-8.4" class="st9" width="371.3" height="342.9"/>
<text transform="matrix(0.7293 0 0 1 -1220.2733 143.9138)" class="st2 st3 st4" style="fill:#FFFFFF;">SESIÓN</text>
<text transform="matrix(0.7293 0 0 1 -1222.0702 307.0144)" class="st2" style="fill:#FFFFFF; font-size:222.4634px; letter-spacing:-24.7;">TRES</text>
<rect x="-2080.2" y="-8.4" class="st10" width="371.3" height="342.9"/>
<rect x="-1942.1" y="730.1" class="st10" width="1515.6" height="37.3"/>
<text transform="matrix(0.7293 0 0 1 -2062.5701 143.9148)" class="st2 st3 st4" style="fill:#FFFFFF;">SESIÓN</text>
<rect x="-1664.9" y="-8.4" class="st11" width="371.3" height="342.9"/>
<text transform="matrix(0.7293 0 0 1 -1647.2299 143.9138)" class="st2 st3 st4" style="fill:#FFFFFF;">SESIÓN</text>
<text transform="matrix(0.7293 0 0 1 -1649.0262 324.906)" class="st2" style="fill:#FFFFFF; font-size:250.6125px; letter-spacing:-26.1;">DOS</text>
<text transform="matrix(0.7293 0 0 1 -2064.3665 324.906)" class="st2" style="fill:#FFFFFF; font-size:250.6125px; letter-spacing:-26.1;">UNO</text>
</svg>
